<svg xmlns="http://www.w3.org/2000/svg" width="200" height="199.955" viewBox="0 0 200 199.955">
  <path id="instagram-icon" d="M99.947,80.537A51.266,51.266,0,1,0,151.213,131.8,51.185,51.185,0,0,0,99.947,80.537Zm0,84.6a33.33,33.33,0,1,1,33.33-33.33,33.39,33.39,0,0,1-33.33,33.33ZM165.268,78.44A11.958,11.958,0,1,1,153.31,66.482,11.93,11.93,0,0,1,165.268,78.44Zm33.954,12.136c-.759-16.018-4.417-30.206-16.152-41.9-11.69-11.69-25.878-15.349-41.9-16.152-16.509-.937-65.99-.937-82.5,0-15.973.759-30.162,4.417-41.9,16.107S1.431,74.513.628,90.531c-.937,16.509-.937,65.99,0,82.5.759,16.018,4.417,30.206,16.152,41.9s25.878,15.349,41.9,16.152c16.509.937,65.99.937,82.5,0,16.018-.759,30.206-4.417,41.9-16.152,11.69-11.69,15.349-25.878,16.152-41.9.937-16.509.937-65.945,0-82.454ZM177.895,190.743a33.743,33.743,0,0,1-19.007,19.007c-13.162,5.22-44.395,4.016-58.94,4.016s-45.823,1.16-58.94-4.016A33.743,33.743,0,0,1,22,190.743c-5.22-13.162-4.016-44.395-4.016-58.94S16.824,85.98,22,72.862A33.743,33.743,0,0,1,41.007,53.855c13.162-5.22,44.395-4.016,58.94-4.016s45.823-1.16,58.94,4.016a33.743,33.743,0,0,1,19.007,19.007c5.22,13.162,4.016,44.395,4.016,58.94S183.115,177.625,177.895,190.743Z" transform="translate(0.075 -31.825)" fill="#fff"/>
</svg>
