<?xml version="1.0" encoding="UTF-8"?>
<svg id="_レイヤー_1" data-name="レイヤー 1" xmlns="http://www.w3.org/2000/svg" viewBox="0 0 382 348">
  <defs>
    <style>
      .cls-1 {
        fill: none;
      }

      .cls-2, .cls-3 {
        fill: #656565;
      }

      .cls-3 {
        font-family: ChakraPetch-Medium, 'Chakra Petch';
        font-size: 32px;
        letter-spacing: 0em;
      }
    </style>
  </defs>
  <g>
    <text class="cls-3" transform="translate(14.38 325.22)"><tspan x="0" y="0">neaopolitan pizzeria</tspan></text>
    <path class="cls-2" d="M71.24,121.88c6.28,4.16,12.01,8.13,17.92,11.81,5.93,3.69,8.61,8.77,8.56,15.8-.17,21.17-.04,42.35-.07,63.52-.02,10.66-5.38,16.15-15.89,16.19-17.17,.07-34.34,.06-51.51,0-10.12-.03-15.53-5.36-15.55-15.4-.06-21.68,.04-43.35-.06-65.03-.03-6.8,2.63-11.78,8.48-15.31,5.95-3.6,11.71-7.52,17.99-11.59-6.23-3.89-11.79-7.53-17.52-10.89-5.55-3.25-8.34-7.89-8.32-14.33,.04-19.34-.12-38.68,.07-58.02,.09-9.26,5.63-14.45,14.85-14.48,17.34-.06,34.67-.07,52.01,0,9.2,.04,14.72,5.33,14.79,14.54,.15,19.34,.02,38.68,.05,58.02,.01,6.24-2.64,10.79-8,13.99-5.83,3.48-11.51,7.2-17.8,11.16Zm-15.14,8.07c-6.77,4.46-13.36,8.97-20.14,13.18-2.46,1.53-3.23,3.28-3.21,6.08,.11,19.84,.05,39.67,.07,59.51,0,1.29,.17,2.58,.27,3.98h46.25c0-22.06,.04-43.71-.1-65.36,0-1.18-1.12-2.75-2.18-3.48-6.86-4.7-13.85-9.22-20.96-13.9ZM33.49,40.41c0,19.13-.05,37.75,.1,56.37,.01,1.32,1.21,3.06,2.37,3.88,5.84,4.13,11.77,8.13,17.85,11.88,1.14,.71,3.48,.68,4.63-.03,5.94-3.66,11.79-7.5,17.42-11.63,1.44-1.06,2.71-3.39,2.73-5.15,.2-17.47,.12-34.95,.1-52.43,0-.93-.26-1.87-.41-2.9H33.49Z"/>
    <path class="cls-2" d="M118.73,126.17c0-28.33-.01-56.67,0-85,0-12.01,5.02-17.01,16.98-17.02,16.83,0,33.66-.02,50.49,0,10.54,.02,16.05,5.38,16.06,16,.05,57.67,.05,115.34,0,173.01,0,10.6-5.51,16.01-16.05,16.05-17.33,.06-34.66,.07-51.99,0-9.99-.04-15.45-5.5-15.47-15.53-.06-29.17-.02-58.34-.02-87.5Zm64.78,86.66V40.58h-46.26V212.83h46.26Z"/>
    <path class="cls-2" d="M308.54,126.68c0,28.34,.01,56.67,0,85.01,0,12.49-5.08,17.53-17.63,17.54-16.5,.01-33,.03-49.49,0-11.27-.02-16.48-5.24-16.49-16.57-.02-57.34-.02-114.68,0-172.01,0-11.33,5.21-16.48,16.52-16.49,17-.01,34-.02,50.99,0,10.5,.02,16.06,5.47,16.08,16.02,.06,28.84,.02,57.67,.02,86.51Zm-18.7,86.16V40.57h-46.3V212.84h46.3Z"/>
    <path class="cls-2" d="M324.64,55.9c0-6.83-.08-13.67,.02-20.5,.12-7.53,3.61-11.12,11-11.23,8.66-.12,17.33-.12,25.99,0,7.37,.1,10.97,3.75,11.03,11.22,.1,13.67,.1,27.33,0,41-.05,7.28-3.33,10.97-10.53,11.23-8.98,.33-18,.33-26.98,0-7.23-.26-10.39-3.89-10.51-11.23-.11-6.83-.02-13.67-.02-20.5Zm15-17.7v35.6h17.83V38.2h-17.83Z"/>
    <path class="cls-2" d="M15.96,243.35c5.75,0,11.07-.17,16.36,.05,6.18,.26,9.84,3.52,9.99,9.57,.29,11.64,.28,23.3,0,34.94-.14,5.75-3.62,9.06-9.1,9.29-5.63,.23-11.27,.05-17.25,.05v-53.9Zm7.93,46.48c9.34,1.31,10.45,.39,10.45-8.55,0-7.3,0-14.6,0-21.9,0-8.91-1.23-9.93-10.45-8.55v38.99Z"/>
    <path class="cls-2" d="M169.37,267.1v-16.4h-9.58v46.19h-7.94v-53.5c7.28,0,14.41-.27,21.5,.21,1.52,.1,3.97,2.82,4.09,4.46,.47,6.63,.65,13.36-.04,19.96-.23,2.23-3.36,4.16-5.16,6.22-.59-.24-1.17-.49-1.76-.73,2.74,7.71,5.47,15.43,8.22,23.18q-7.85,1.39-10.41-5.83c-2-5.64-4.08-11.26-5.92-16.96-.6-1.83-.57-3.87-.9-6.32,2.84-.17,5.24-.32,7.9-.48Z"/>
    <path class="cls-2" d="M130.92,259.73h-7.8c-.2-3.15-.39-6.07-.58-9.19h-9.56v39.44h9.49v-14.44c-1.68-.16-3.29-.31-5.27-.5v-6.41h13.54c0,8.51,.17,16.93-.19,25.33-.05,1.16-2.67,3.05-4.19,3.15-5.81,.37-11.68,.46-17.47-.06-1.56-.14-4.13-2.73-4.16-4.24-.31-14.99-.33-30,.03-44.99,.04-1.53,2.94-4.1,4.72-4.28,5.44-.57,10.98-.25,16.48-.19,3.18,.04,4.95,1.67,4.96,4.97,0,3.65,0,7.3,0,11.42Z"/>
    <path class="cls-2" d="M307.34,260.04h-7.79c-.14-3.07-.29-6.14-.44-9.49h-9.13c-1.06,5.53-.93,10.49,4.38,14.02,1.64,1.09,2.73,3.03,4.4,4.04,9.25,5.61,9.4,14.41,8.63,23.63-.28,3.39-1.84,5.14-5.4,5.07-5.16-.1-10.32-.04-15.48-.02-2.94,0-4.86-1.21-4.93-4.33-.09-4.29-.02-8.59-.02-13.21h7.79v10.35h9.51c1-5.69,1.27-10.93-4.31-14.64-1.64-1.09-2.73-3.02-4.39-4.05-8.87-5.51-9.57-13.92-8.7-23.08,.31-3.26,1.79-4.93,4.98-4.97,5.32-.07,10.69-.4,15.95,.19,1.79,.2,4.39,2.64,4.72,4.41,.72,3.82,.22,7.87,.22,12.08Z"/>
    <path class="cls-2" d="M217.75,273.33h-11.53v16.65h13.71v7h-21.7v-53.34h21.47v6.68h-13.43v15.88h11.48v7.13Z"/>
    <path class="cls-2" d="M62.74,297v-53.31h21.61v6.76h-13.47v15.51h11.46v7.22h-11.41v16.84h13.55v6.99h-21.74Z"/>
    <path class="cls-2" d="M261.75,290.2v6.82h-21.74v-53.3h21.42v6.7h-13.4v15.7h11.39v7.09h-11.39v16.99h13.71Z"/>
  </g>
  <rect id="_スライス_" data-name="&amp;lt;スライス&amp;gt;" class="cls-1" width="382" height="348"/>
</svg>