<svg xmlns="http://www.w3.org/2000/svg" width="200" height="162.437" viewBox="0 0 200 162.437">
  <path id="twitter-icon" d="M179.442,88.564c.127,1.777.127,3.554.127,5.33,0,54.188-41.244,116.625-116.625,116.625A115.834,115.834,0,0,1,0,192.118a84.8,84.8,0,0,0,9.9.507,82.091,82.091,0,0,0,50.888-17.513,41.062,41.062,0,0,1-38.325-28.427,51.693,51.693,0,0,0,7.741.634,43.353,43.353,0,0,0,10.787-1.4A41,41,0,0,1,8.122,105.7v-.507a41.281,41.281,0,0,0,18.528,5.2,41.051,41.051,0,0,1-12.69-54.822A116.512,116.512,0,0,0,98.477,98.463a46.273,46.273,0,0,1-1.015-9.391A41.029,41.029,0,0,1,168.4,61.026a80.7,80.7,0,0,0,26.015-9.9A40.879,40.879,0,0,1,176.4,73.716,82.173,82.173,0,0,0,200,67.372a88.112,88.112,0,0,1-20.558,21.193Z" transform="translate(0 -48.082)" fill="#fff"/>
</svg>
